{
  "accessors": [
    {
      "bufferView": 2,
      "componentType": 5126,
      "count": 65532,
      "max": [
        41327.359375,
        2.5,
        37491.80078125
      ],
      "min": [
        -41327.359375,
        2.5,
        -37491.80078125
      ],
      "type": "VEC3"
    },
    {
      "bufferView": 2,
      "byteOffset": 786384,
      "componentType": 5126,
      "count": 65532,
      "max": [
        0.0,
        1.0,
        0.0
      ],
      "min": [
        0.0,
        1.0,
        0.0
      ],
      "type": "VEC3"
    },
    {
      "bufferView": 1,
      "componentType": 5126,
      "count": 65532,
      "max": [
        1.0,
        1.0
      ],
      "min": [
        0.0,
        0.0
      ],
      "type": "VEC2"
    },
    {
      "bufferView": 0,
      "componentType": 5125,
      "count": 383310,
      "type": "SCALAR"
    },
    {
      "bufferView": 2,
      "byteOffset": 1572768,
      "componentType": 5126,
      "count": 65532,
      "max": [
        41234.59375,
        2162.5,
        37491.80078125
      ],
      "min": [
        -41327.359375,
        2.5,
        -30543.76953125
      ],
      "type": "VEC3"
    },
    {
      "bufferView": 2,
      "byteOffset": 2359152,
      "componentType": 5126,
      "count": 65532,
      "max": [
        0.9253129959106445,
        1.0,
        0.9059950709342957
      ],
      "min": [
        -0.9410666227340698,
        0.23768796026706696,
        -0.9237158298492432
      ],
      "type": "VEC3"
    },
    {
      "bufferView": 1,
      "byteOffset": 524256,
      "componentType": 5126,
      "count": 65532,
      "max": [
        0.9988776445388794,
        1.0
      ],
      "min": [
        0.0,
        0.09266067296266556
      ],
      "type": "VEC2"
    },
    {
      "bufferView": 0,
      "byteOffset": 1533240,
      "componentType": 5125,
      "count": 383727,
      "type": "SCALAR"
    },
    {
      "bufferView": 2,
      "byteOffset": 3145536,
      "componentType": 5126,
      "count": 65532,
      "max": [
        41141.828125,
        4610.0,
        37491.80078125
      ],
      "min": [
        -41327.359375,
        2.5,
        -23493.72265625
      ],
      "type": "VEC3"
    },
    {
      "bufferView": 2,
      "byteOffset": 3931920,
      "componentType": 5126,
      "count": 65532,
      "max": [
        0.9693848490715027,
        1.0,
        0.9721184968948364
      ],
      "min": [
        -0.9689133763313293,
        0.18729181587696075,
        -0.9601984024047852
      ],
      "type": "VEC3"
    },
    {
      "bufferView": 1,
      "byteOffset": 1048512,
      "componentType": 5126,
      "count": 65532,
      "max": [
        0.9977553486824036,
        1.0
      ],
      "min": [
        0.0,
        0.1866818517446518
      ],
      "type": "VEC2"
    },
    {
      "bufferView": 0,
      "byteOffset": 3068148,
      "componentType": 5125,
      "count": 384165,
      "type": "SCALAR"
    },
    {
      "bufferView": 2,
      "byteOffset": 4718304,
      "componentType": 5126,
      "count": 65532,
      "max": [
        41049.0625,
        5670.0,
        37491.80078125
      ],
      "min": [
        -41327.359375,
        2.5,
        -16440.892578125
      ],
      "type": "VEC3"
    },
    {
      "bufferView": 2,
      "byteOffset": 5504688,
      "componentType": 5126,
      "count": 65532,
      "max": [
        0.977294921875,
        1.0,
        0.9768292307853699
      ],
      "min": [
        -0.9801427721977234,
        0.1355847865343094,
        -0.9806546568870544
      ],
      "type": "VEC3"
    },
    {
      "bufferView": 1,
      "byteOffset": 1572768,
      "componentType": 5126,
      "count": 65532,
      "max": [
        0.996632993221283,
        1.0
      ],
      "min": [
        0.0,
        0.2807401716709137
      ],
      "type": "VEC2"
    },
    {
      "bufferView": 0,
      "byteOffset": 4604808,
      "componentType": 5125,
      "count": 384597,
      "type": "SCALAR"
    },
    {
      "bufferView": 2,
      "byteOffset": 6291072,
      "componentType": 5126,
      "count": 65532,
      "max": [
        40956.296875,
        7630.0,
        37491.80078125
      ],
      "min": [
        -41327.359375,
        2.5,
        -9385.26953125
      ],
      "type": "VEC3"
    },
    {
      "bufferView": 2,
      "byteOffset": 7077456,
      "componentType": 5126,
      "count": 65532,
      "max": [
        0.9730337858200073,
        1.0,
        0.9727784395217896
      ],
      "min": [
        -0.9883479475975037,
        0.14362703263759613,
        -0.9644511342048645
      ],
      "type": "VEC3"
    },
    {
      "bufferView": 1,
      "byteOffset": 2097024,
      "componentType": 5126,
      "count": 65532,
      "max": [
        0.9955106973648071,
        1.0
      ],
      "min": [
        0.0,
        0.37483569979667664
      ],
      "type": "VEC2"
    },
    {
      "bufferView": 0,
      "byteOffset": 6143196,
      "componentType": 5125,
      "count": 385029,
      "type": "SCALAR"
    },
    {
      "bufferView": 2,
      "byteOffset": 7863840,
      "componentType": 5126,
      "count": 65532,
      "max": [
        40863.53125,
        7217.5,
        37491.80078125
      ],
      "min": [
        -41327.359375,
        2.5,
        -2326.842529296875
      ],
      "type": "VEC3"
    },
    {
      "bufferView": 2,
      "byteOffset": 8650224,
      "componentType": 5126,
      "count": 65532,
      "max": [
        0.9719122052192688,
        1.0,
        0.9620792865753174
      ],
      "min": [
        -0.9705308675765991,
        0.18134531378746033,
        -0.9595560431480408
      ],
      "type": "VEC3"
    },
    {
      "bufferView": 1,
      "byteOffset": 2621280,
      "componentType": 5126,
      "count": 65532,
      "max": [
        0.9943883419036865,
        1.0
      ],
      "min": [
        0.0,
        0.46896862983703613
      ],
      "type": "VEC2"
    },
    {
      "bufferView": 0,
      "byteOffset": 7683312,
      "componentType": 5125,
      "count": 385464,
      "type": "SCALAR"
    },
    {
      "bufferView": 2,
      "byteOffset": 9436608,
      "componentType": 5126,
      "count": 65532,
      "max": [
        40770.76171875,
        6117.5,
        37491.80078125
      ],
      "min": [
        -41327.359375,
        0.0,
        4933.34716796875
      ],
      "type": "VEC3"
    },
    {
      "bufferView": 2,
      "byteOffset": 10222992,
      "componentType": 5126,
      "count": 65532,
      "max": [
        0.9806995391845703,
        1.0,
        0.9900593757629395
      ],
      "min": [
        -0.9857446551322937,
        0.11083522439002991,
        -0.9850576519966125
      ],
      "type": "VEC3"
    },
    {
      "bufferView": 1,
      "byteOffset": 3145536,
      "componentType": 5126,
      "count": 65532,
      "max": [
        0.9932660460472107,
        1.0
      ],
      "min": [
        0.0,
        0.5657923817634583
      ],
      "type": "VEC2"
    },
    {
      "bufferView": 0,
      "byteOffset": 9225168,
      "componentType": 5125,
      "count": 385902,
      "type": "SCALAR"
    },
    {
      "bufferView": 2,
      "byteOffset": 11009376,
      "componentType": 5126,
      "count": 65532,
      "max": [
        40677.99609375,
        6532.5,
        37491.80078125
      ],
      "min": [
        -41327.359375,
        2.5,
        11997.4912109375
      ],
      "type": "VEC3"
    },
    {
      "bufferView": 2,
      "byteOffset": 11795760,
      "componentType": 5126,
      "count": 65532,
      "max": [
        0.9848659634590149,
        1.0,
        0.9640608429908752
      ],
      "min": [
        -0.9771319031715393,
        0.1528758555650711,
        -0.9464322328567505
      ],
      "type": "VEC3"
    },
    {
      "bufferView": 1,
      "byteOffset": 3669792,
      "componentType": 5126,
      "count": 65532,
      "max": [
        0.9921436905860901,
        1.0
      ],
      "min": [
        0.0,
        0.6600015759468079
      ],
      "type": "VEC2"
    },
    {
      "bufferView": 0,
      "byteOffset": 10768776,
      "componentType": 5125,
      "count": 386331,
      "type": "SCALAR"
    },
    {
      "bufferView": 2,
      "byteOffset": 12582144,
      "componentType": 5126,
      "count": 65532,
      "max": [
        40585.23046875,
        5472.5,
        37491.80078125
      ],
      "min": [
        -41327.359375,
        2.5,
        19064.46875
      ],
      "type": "VEC3"
    },
    {
      "bufferView": 2,
      "byteOffset": 13368528,
      "componentType": 5126,
      "count": 65532,
      "max": [
        0.9803017973899841,
        1.0,
        0.9431712031364441
      ],
      "min": [
        -0.9638789296150208,
        0.1835516393184662,
        -0.954383134841919
      ],
      "type": "VEC3"
    },
    {
      "bufferView": 1,
      "byteOffset": 4194048,
      "componentType": 5126,
      "count": 65532,
      "max": [
        0.9910213947296143,
        1.0
      ],
      "min": [
        0.0,
        0.7542484998703003
      ],
      "type": "VEC2"
    },
    {
      "bufferView": 0,
      "byteOffset": 12314100,
      "componentType": 5125,
      "count": 386772,
      "type": "SCALAR"
    },
    {
      "bufferView": 2,
      "byteOffset": 14154912,
      "componentType": 5126,
      "count": 65532,
      "max": [
        40492.46484375,
        1732.5,
        37491.80078125
      ],
      "min": [
        -41327.359375,
        2.5,
        26333.478515625
      ],
      "type": "VEC3"
    },
    {
      "bufferView": 2,
      "byteOffset": 14941296,
      "componentType": 5126,
      "count": 65532,
      "max": [
        0.9366980791091919,
        1.0,
        0.8536280393600464
      ],
      "min": [
        -0.9532442688941956,
        0.3011839687824249,
        -0.768164873123169
      ],
      "type": "VEC3"
    },
    {
      "bufferView": 1,
      "byteOffset": 4718304,
      "componentType": 5126,
      "count": 65532,
      "max": [
        0.9898990392684937,
        1.0
      ],
      "min": [
        0.0,
        0.8511898517608643
      ],
      "type": "VEC2"
    },
    {
      "bufferView": 0,
      "byteOffset": 13861188,
      "componentType": 5125,
      "count": 387210,
      "type": "SCALAR"
    },
    {
      "bufferView": 2,
      "byteOffset": 15727680,
      "componentType": 5126,
      "count": 30657,
      "max": [
        40399.69921875,
        2082.5,
        37491.80078125
      ],
      "min": [
        -41327.359375,
        2.5,
        -30543.76953125
      ],
      "type": "VEC3"
    },
    {
      "bufferView": 2,
      "byteOffset": 16095564,
      "componentType": 5126,
      "count": 30657,
      "max": [
        0.40791812539100647,
        1.0,
        0.5222711563110352
      ],
      "min": [
        0.0,
        0.7825776934623718,
        -0.5219151377677917
      ],
      "type": "VEC3"
    },
    {
      "bufferView": 1,
      "byteOffset": 5242560,
      "componentType": 5126,
      "count": 30657,
      "max": [
        0.9887767434120178,
        1.0
      ],
      "min": [
        0.0,
        0.09266067296266556
      ],
      "type": "VEC2"
    },
    {
      "bufferView": 0,
      "byteOffset": 15410028,
      "componentType": 5125,
      "count": 178377,
      "type": "SCALAR"
    },
    {
      "bufferView": 2,
      "byteOffset": 16463448,
      "componentType": 5126,
      "count": 8994,
      "max": [
        41327.359375,
        4011.760986328125,
        42933.65625
      ],
      "min": [
        -47959.55078125,
        -959.760986328125,
        -28448.15234375
      ],
      "type": "VEC3"
    },
    {
      "bufferView": 2,
      "byteOffset": 16571376,
      "componentType": 5126,
      "count": 8994,
      "max": [
        1.0,
        0.8944272994995117,
        1.0
      ],
      "min": [
        -1.0,
        -0.9970545172691345,
        -1.0
      ],
      "type": "VEC3"
    },
    {
      "bufferView": 3,
      "componentType": 5126,
      "count": 8994,
      "max": [
        1.0,
        1.0,
        1.0,
        1.0
      ],
      "min": [
        0.0,
        0.0,
        0.0,
        1.0
      ],
      "type": "VEC4"
    },
    {
      "bufferView": 0,
      "byteOffset": 16123536,
      "componentType": 5125,
      "count": 52512,
      "type": "SCALAR"
    }
  ],
  "asset": {
    "extras": {
      "author": "elsaloup (https://sketchfab.com/elsaloup)",
      "license": "CC-BY-NC-SA-4.0 (http://creativecommons.org/licenses/by-nc-sa/4.0/)",
      "source": "https://sketchfab.com/3d-models/reunion-island-8398a7c6095a46c7a22fbd8952e57295",
      "title": "Reunion Island"
    },
    "generator": "Sketchfab-17.8.0",
    "version": "2.0"
  },
  "bufferViews": [
    {
      "buffer": 0,
      "byteLength": 16333584,
      "name": "floatBufferViews",
      "target": 34963
    },
    {
      "buffer": 0,
      "byteLength": 5487816,
      "byteOffset": 16333584,
      "byteStride": 8,
      "name": "floatBufferViews",
      "target": 34962
    },
    {
      "buffer": 0,
      "byteLength": 16679304,
      "byteOffset": 21821400,
      "byteStride": 12,
      "name": "floatBufferViews",
      "target": 34962
    },
    {
      "buffer": 0,
      "byteLength": 143904,
      "byteOffset": 38500704,
      "byteStride": 16,
      "name": "floatBufferViews",
      "target": 34962
    }
  ],
  "buffers": [
    {
      "byteLength": 38644608,
      "uri": "scene.bin"
    }
  ],
  "images": [
    {
      "uri": "textures/TerrainNodeMaterial_baseColor.jpeg"
    }
  ],
  "materials": [
    {
      "doubleSided": true,
      "name": "TerrainNodeMaterial",
      "pbrMetallicRoughness": {
        "baseColorTexture": {
          "index": 0
        },
        "metallicFactor": 0.15,
        "roughnessFactor": 0.85
      }
    },
    {
      "doubleSided": true,
      "name": "AdornmentsMaterial",
      "pbrMetallicRoughness": {
        "metallicFactor": 0.0
      }
    }
  ],
  "meshes": [
    {
      "name": "Object_0",
      "primitives": [
        {
          "attributes": {
            "NORMAL": 1,
            "POSITION": 0,
            "TEXCOORD_0": 2
          },
          "indices": 3,
          "material": 0,
          "mode": 4
        }
      ]
    },
    {
      "name": "Object_1",
      "primitives": [
        {
          "attributes": {
            "NORMAL": 5,
            "POSITION": 4,
            "TEXCOORD_0": 6
          },
          "indices": 7,
          "material": 0,
          "mode": 4
        }
      ]
    },
    {
      "name": "Object_2",
      "primitives": [
        {
          "attributes": {
            "NORMAL": 9,
            "POSITION": 8,
            "TEXCOORD_0": 10
          },
          "indices": 11,
          "material": 0,
          "mode": 4
        }
      ]
    },
    {
      "name": "Object_3",
      "primitives": [
        {
          "attributes": {
            "NORMAL": 13,
            "POSITION": 12,
            "TEXCOORD_0": 14
          },
          "indices": 15,
          "material": 0,
          "mode": 4
        }
      ]
    },
    {
      "name": "Object_4",
      "primitives": [
        {
          "attributes": {
            "NORMAL": 17,
            "POSITION": 16,
            "TEXCOORD_0": 18
          },
          "indices": 19,
          "material": 0,
          "mode": 4
        }
      ]
    },
    {
      "name": "Object_5",
      "primitives": [
        {
          "attributes": {
            "NORMAL": 21,
            "POSITION": 20,
            "TEXCOORD_0": 22
          },
          "indices": 23,
          "material": 0,
          "mode": 4
        }
      ]
    },
    {
      "name": "Object_6",
      "primitives": [
        {
          "attributes": {
            "NORMAL": 25,
            "POSITION": 24,
            "TEXCOORD_0": 26
          },
          "indices": 27,
          "material": 0,
          "mode": 4
        }
      ]
    },
    {
      "name": "Object_7",
      "primitives": [
        {
          "attributes": {
            "NORMAL": 29,
            "POSITION": 28,
            "TEXCOORD_0": 30
          },
          "indices": 31,
          "material": 0,
          "mode": 4
        }
      ]
    },
    {
      "name": "Object_8",
      "primitives": [
        {
          "attributes": {
            "NORMAL": 33,
            "POSITION": 32,
            "TEXCOORD_0": 34
          },
          "indices": 35,
          "material": 0,
          "mode": 4
        }
      ]
    },
    {
      "name": "Object_9",
      "primitives": [
        {
          "attributes": {
            "NORMAL": 37,
            "POSITION": 36,
            "TEXCOORD_0": 38
          },
          "indices": 39,
          "material": 0,
          "mode": 4
        }
      ]
    },
    {
      "name": "Object_10",
      "primitives": [
        {
          "attributes": {
            "NORMAL": 41,
            "POSITION": 40,
            "TEXCOORD_0": 42
          },
          "indices": 43,
          "material": 0,
          "mode": 4
        }
      ]
    },
    {
      "name": "Object_11",
      "primitives": [
        {
          "attributes": {
            "COLOR_0": 46,
            "NORMAL": 45,
            "POSITION": 44
          },
          "indices": 47,
          "material": 1,
          "mode": 4
        }
      ]
    }
  ],
  "nodes": [
    {
      "children": [
        1
      ],
      "matrix": [
        1.0,
        0.0,
        0.0,
        0.0,
        0.0,
        2.220446049250313e-16,
        -1.0,
        0.0,
        0.0,
        1.0,
        2.220446049250313e-16,
        0.0,
        0.0,
        0.0,
        0.0,
        1.0
      ],
      "name": "Sketchfab_model"
    },
    {
      "children": [
        2
      ],
      "name": "root"
    },
    {
      "children": [
        3,
        15
      ],
      "matrix": [
        1.0,
        0.0,
        0.0,
        0.0,
        0.0,
        2.220446049250313e-16,
        1.0,
        0.0,
        0.0,
        -1.0,
        2.220446049250313e-16,
        0.0,
        0.0,
        0.0,
        0.0,
        1.0
      ],
      "name": "GLTF_SceneRootNode"
    },
    {
      "children": [
        4,
        5,
        6,
        7,
        8,
        9,
        10,
        11,
        12,
        13,
        14
      ],
      "name": "TerrainNode_0"
    },
    {
      "mesh": 0,
      "name": "Object_4"
    },
    {
      "mesh": 1,
      "name": "Object_5"
    },
    {
      "mesh": 2,
      "name": "Object_6"
    },
    {
      "mesh": 3,
      "name": "Object_7"
    },
    {
      "mesh": 4,
      "name": "Object_8"
    },
    {
      "mesh": 5,
      "name": "Object_9"
    },
    {
      "mesh": 6,
      "name": "Object_10"
    },
    {
      "mesh": 7,
      "name": "Object_11"
    },
    {
      "mesh": 8,
      "name": "Object_12"
    },
    {
      "mesh": 9,
      "name": "Object_13"
    },
    {
      "mesh": 10,
      "name": "Object_14"
    },
    {
      "children": [
        16
      ],
      "name": "Adornments_1"
    },
    {
      "mesh": 11,
      "name": "Object_16"
    }
  ],
  "samplers": [
    {
      "magFilter": 9729,
      "minFilter": 9987,
      "wrapS": 10497,
      "wrapT": 10497
    }
  ],
  "scene": 0,
  "scenes": [
    {
      "name": "Sketchfab_Scene",
      "nodes": [
        0
      ]
    }
  ],
  "textures": [
    {
      "sampler": 0,
      "source": 0
    }
  ]
}
